HIERARCHY
ROOT simHips
{
  OFFSET -173.905 99.72 111.912
  CHANNELS 6 Xposition Yposition Zposition Zrotation Xrotation Yrotation
  JOINT simSpine
  {
    OFFSET -0.000355721 21.3001 -0.016921
    CHANNELS 3 Zrotation Xrotation Yrotation
    JOINT simLeftArm
    {
      OFFSET 13.5181 21.3012 0
      CHANNELS 3 Zrotation Xrotation Yrotation
      JOINT simLeftForeArm
      {
        OFFSET 24.5783 0 0
        CHANNELS 3 Zrotation Xrotation Yrotation
        JOINT simLeftHand
        {
          OFFSET 24.5783 0 0
          CHANNELS 3 Zrotation Xrotation Yrotation
          End Site
          {
            OFFSET 7.32568 1.52588e-05 0.0169305
          }
        }
      }
    }
    JOINT simHead
    {
      OFFSET 0 27.4458 -0.00489235
      CHANNELS 3 Zrotation Xrotation Yrotation
      End Site
      {
        OFFSET 0 0 0
      }
    }
    JOINT simRightArm
    {
      OFFSET -13.5174 21.3012 0
      CHANNELS 3 Zrotation Xrotation Yrotation
      JOINT simRightForeArm
      {
        OFFSET -24.5783 0 0
        CHANNELS 3 Zrotation Xrotation Yrotation
        JOINT simRightHand
        {
          OFFSET -24.5783 0 0
          CHANNELS 3 Zrotation Xrotation Yrotation
          End Site
          {
            OFFSET -7.32568 1.52588e-05 0.0169305
          }
        }
      }
    }
  }
  JOINT simRightUpLeg
  {
    OFFSET -8.44614 -9.41038 0.835684
    CHANNELS 3 Zrotation Xrotation Yrotation
    JOINT simRightLeg
    {
      OFFSET 0 -40.9639 0
      CHANNELS 3 Zrotation Xrotation Yrotation
      JOINT simRightFoot
      {
        OFFSET 0 -40.9639 0
        CHANNELS 3 Zrotation Xrotation Yrotation
        End Site
        {
          OFFSET 0.50614 -9.67405 14.6709
        }
      }
    }
  }
  JOINT simLeftUpLeg
  {
    OFFSET 8.44614 -9.41038 0.835684
    CHANNELS 3 Zrotation Xrotation Yrotation
    JOINT simLeftLeg
    {
      OFFSET 0 -40.9639 0
      CHANNELS 3 Zrotation Xrotation Yrotation
      JOINT simLeftFoot
      {
        OFFSET 0 -40.9639 0
        CHANNELS 3 Zrotation Xrotation Yrotation
        End Site
        {
          OFFSET -0.50614 -9.67405 14.6709
        }
      }
    }
  }
}
MOTION
Frames:	9
Frame Time:	0.0333333
23.63 98.0022 -41.7071 -24.6028 -14.9938 24.2454 3.44946 40.7253 -34.3206 31.1896 35.8845 -77.9936 41.4244 -16.1458 -55.8 20.7834 14.4848 -1.67508 39.8467 11.5663 -47.8642 101.164 13.6997 -42.8755 -45.8912 -25.8636 61.0172 -30.0382 -12.7042 -16.2567 -41.4716 -75.4726 -47.98 142.032 62.3418 -116.392 6.67289 -5.31207 7.33508 40.984 -23.706 3.95392 -11.0816 24.4713 1.74429 -0.851793 -2.51878 2.72033 
25.3574 98.7804 -43.2374 -30.3882 -14.6193 19.8587 11.8372 44.0299 -29.7879 26.7108 39.6139 -72.4179 43.2048 -18.1634 -58.6432 23.1392 11.6017 -1.12631 36.9136 4.73522 -46.2817 87.9563 17.2889 -23.0903 -47.5267 -28.4282 63.8932 -28.3313 -8.07639 -11.1762 -58.3294 -68.2383 -44.7349 146.851 60.0156 -120.302 -0.875138 -4.69657 -3.11034 46.2774 -21.8363 10.3583 -9.02654 20.2524 1.09435 0.492351 3.96316 4.48274 
28.1023 98.4932 -43.8982 -34.9999 -13.3089 17.9924 19.5479 45.5438 -25.2365 19.138 45.886 -60.7245 44.8901 -20.2551 -61.4447 25.6404 13.5722 -2.77669 35.5892 -3.04587 -47.0975 71.0251 21.0803 -7.71277 -47.1029 -27.7401 63.1309 -28.2593 -2.22366 -6.32522 -54.074 -50.4977 -19.3684 103.335 70.9052 -80.4793 -1.91036 5.35087 -11.0938 50.4897 -23.128 15.3796 -9.40205 20.828 1.10143 2.08663 4.61835 1.75461 
29.0994 97.3511 -42.0088 -33.4634 -10.728 21.4739 14.869 40.3795 -15.6359 15.9057 54.6018 -48.2473 45.8587 -21.5317 -63.0937 25.8278 13.0789 -4.95726 38.387 -6.81283 -53.9704 67.8161 20.4295 -9.65483 -45.6096 -25.5234 60.672 -27.4365 -1.32138 -5.07848 -52.7689 -22.4084 -2.48862 26.9859 51.0361 -11.9411 8.67525 23.8126 -5.01832 50.6222 -28.0457 18.7693 -12.6487 27.1535 2.07683 2.48668 -0.899749 -0.716489 
27.4144 96.8266 -37.8639 -31.0591 -6.4519 25.206 3.31585 30.2607 -3.94428 14.6747 60.7608 -30.2592 45.9591 -21.68 -63.2809 27.613 7.62866 -5.76359 40.9673 -1.20065 -58.5625 76.1193 17.2328 -14.3664 -42.4062 -21.0953 55.3485 -25.5283 -4.80148 -4.71946 -48.74 8.53496 14.0404 2.98889 8.26957 -0.277574 9.73515 34.4159 -1.16633 51.7953 -31.5864 24.7657 -15.1323 31.373 3.03575 -0.413251 -4.85994 -4.72632 
25.5021 97.2291 -34.9106 -30.4027 -4.39441 25.5769 -3.88608 27.4931 4.30818 10.0797 55.3741 -10.6586 44.5047 -19.7586 -60.7908 28.4434 4.23895 -6.65348 37.231 0.0681528 -51.99 82.0199 14.6273 -11.3175 -39.7126 -17.9286 51.2612 -24.3965 -5.16252 -5.84363 -42.7479 17.6673 -5.21424 -0.0629201 -1.8353e-05 -0.349626 17.4863 33.4238 -5.17351 49.575 -31.6758 19.2974 -13.6473 28.7967 2.36821 1.86256 -4.65297 -1.09431 
24.1407 98.0479 -34.1141 -29.7708 -3.86183 20.2819 -8.24418 27.0359 13.1948 4.5734 46.9243 -4.05491 39.7377 -14.3893 -53.1878 27.6083 10.4283 -9.9732 27.7956 -1.4757 -48.8905 80.5015 18.0052 -7.72864 -38.9018 -17.0504 50.0679 -20.7711 -8.02684 -5.09173 -36.6565 10.8271 -7.51841 4.77486 18.0085 -0.514934 14.5361 32.2379 3.72384 47.4136 -28.0588 11.5404 -12.242 26.4859 1.91573 5.4783 -2.84506 3.92673 
23.3815 98.78 -33.7143 -27.4919 -2.04787 12.641 -11.9285 20.7405 17.2771 -8.34733 42.8564 -1.05232 31.6706 -7.73229 -41.4811 21.4643 12.4871 -5.31015 24.6169 3.77556 -53.8855 77.6487 25.7371 -6.40378 -39.6374 -17.8458 51.1499 -18.1454 -3.37071 -1.35315 -31.5552 3.94589 -8.39465 8.04477 25.8183 -1.45035 14.1362 28.9525 5.72747 43.693 -22.158 5.78995 -10.4062 23.1243 1.29621 4.32983 -1.96683 7.65296 
22.5283 99.145 -33.6159 -24.4375 -0.00418872 7.68553 -14.9521 16.5665 13.8081 -21.9558 34.8929 4.01022 23.0204 -3.08862 -29.7618 15.9972 4.59828 0.600956 26.1796 6.30832 -58.4709 75.3137 32.1083 -0.38589 -41.9856 -20.5738 54.6962 -16.7894 4.39518 1.30333 -25.1196 -0.308109 -12.8406 7.70913 25.3771 -1.29095 15.6831 24.6381 7.50022 40.1281 -19.1967 3.28263 -9.54545 21.1909 1.09193 4.37567 -1.39455 12.0004 
